<svg xmlns="http://www.w3.org/2000/svg" xmlns:svg="http://www.w3.org/2000/svg" xmlns:xlink="http://www.w3.org/1999/xlink" id="svg1658" width="365.378" height="110.378" version="1.1" viewBox="0 0 96.673 29.204"><defs id="defs1652"><radialGradient id="radialGradient972" cx="84.904" cy="87.259" r="25.591" fx="84.904" fy="87.259" gradientTransform="matrix(-0.67202835,-4.1550417e-6,0,0.41355594,107.61256,29.970212)" gradientUnits="userSpaceOnUse" xlink:href="#linearGradient829"/><linearGradient id="linearGradient829"><stop style="stop-color:#87cdde;stop-opacity:1" id="stop825" offset="0"/><stop style="stop-color:#2b869c;stop-opacity:1" id="stop827" offset="1"/></linearGradient></defs><metadata id="metadata1655"/><g id="layer1" transform="translate(-28.014749,-54.100295)"><path style="fill:url(#radialGradient972);fill-opacity:1;stroke:none;stroke-width:.18862282px;stroke-linecap:butt;stroke-linejoin:miter;stroke-opacity:1" id="path958" d="m 69.075177,71.348213 c 0,0 -6.6104,-9.26448 -18.520831,-9.26042 -11.91042,0.004 -18.52083,9.26042 -18.52083,9.26042 6.61458,-1.32292 14.55208,1.32291 18.52083,7.9375 3.968751,-6.61459 11.906251,-9.26042 18.520831,-7.9375 z"/><path style="opacity:.5;fill:#addde9;fill-opacity:1;stroke:none;stroke-width:.18862282px;stroke-linecap:butt;stroke-linejoin:miter;stroke-opacity:1" id="path960" d="m 65.106427,62.087793 -14.552081,7.9375 -14.55208,-7.9375 14.55208,-3.96875 z"/><g style="font-style:normal;font-weight:400;font-size:23.18833733px;line-height:1.25;font-family:sans-serif;letter-spacing:0;word-spacing:0;fill:#333;fill-opacity:1;stroke:none;stroke-width:.44148159" id="g970" aria-label="mici" transform="matrix(1.3130976,0,0,1.3130976,-124.68266,-144.77913)"><path style="font-style:normal;font-variant:normal;font-weight:400;font-stretch:normal;font-family:Carlito;-inkscape-font-specification:Carlito;fill:#333;stroke-width:.44148159" id="path962" d="m 150.60248,168.60999 v -11.07334 h 1.17753 q 0.22645,0 0.351,0.1019 0.13586,0.0906 0.15851,0.30571 l 0.16984,1.13224 q 0.31702,-0.37364 0.6567,-0.67935 0.35099,-0.31702 0.74728,-0.54347 0.39628,-0.23777 0.84918,-0.36232 0.4529,-0.12455 0.96241,-0.12455 1.14356,0 1.85687,0.62274 0.72464,0.62273 1.03035,1.67572 0.23777,-0.61142 0.62273,-1.04167 0.39628,-0.43025 0.87183,-0.71331 0.47554,-0.28306 1.01902,-0.40761 0.54347,-0.13587 1.10959,-0.13587 1.81159,0 2.79664,1.08696 0.99638,1.08695 0.99638,3.10234 v 7.05388 h -1.99275 v -7.05388 q 0,-1.29076 -0.58877,-1.94746 -0.58876,-0.66802 -1.68704,-0.66802 -0.49819,0 -0.93976,0.16984 -0.44158,0.15851 -0.78125,0.49818 -0.32835,0.32835 -0.53215,0.81522 -0.19248,0.48686 -0.19248,1.13224 v 7.05388 h -1.99275 v -7.05388 q 0,-1.32472 -0.5548,-1.9701 -0.54348,-0.64538 -1.60779,-0.64538 -0.72463,0 -1.35869,0.38496 -0.63405,0.37364 -1.15489,1.04167 v 8.24273 z"/><path style="font-style:normal;font-variant:normal;font-weight:400;font-stretch:normal;font-family:Carlito;-inkscape-font-specification:Carlito;fill:#333;stroke-width:.44148159" id="path964" d="m 170.94165,157.73384 c 0.13295,0.13798 0.17707,0.28526 0.17707,0.52648 v 10.34967 h -1.99275 v -11.07334 h 1.30222 c 0.23018,0 0.38052,0.0592 0.51346,0.19719 z"/><path style="font-style:normal;font-variant:normal;font-weight:400;font-stretch:normal;font-family:Carlito;-inkscape-font-specification:Carlito;fill:#333;stroke-width:.44148159" id="path966" d="m 181.51271,159.5294 q -0.0906,0.12454 -0.18116,0.19248 -0.0793,0.0566 -0.23777,0.0566 -0.16983,0 -0.35099,-0.13587 -0.18116,-0.13587 -0.4529,-0.29438 -0.27174,-0.16984 -0.66802,-0.30571 -0.38497,-0.13587 -0.95109,-0.13587 -0.74728,0 -1.32472,0.29439 -0.56612,0.28306 -0.95109,0.82653 -0.37364,0.53216 -0.57744,1.30208 -0.19248,0.76993 -0.19248,1.73233 0,0.99638 0.2038,1.77763 0.21513,0.76992 0.60009,1.30208 0.38496,0.53215 0.92844,0.81521 0.54348,0.27174 1.22282,0.27174 0.6567,0 1.07563,-0.16984 0.41893,-0.16983 0.70199,-0.37364 0.28307,-0.2038 0.46422,-0.37364 0.19249,-0.16983 0.39629,-0.16983 0.22645,0 0.36232,0.19248 l 0.57744,0.72463 q -0.36232,0.44158 -0.80389,0.76993 -0.44158,0.31703 -0.95109,0.53215 -0.50951,0.20381 -1.0643,0.30571 -0.54348,0.1019 -1.1096,0.1019 -0.97373,0 -1.82291,-0.38496 -0.84919,-0.38497 -1.48324,-1.1096 -0.62274,-0.73596 -0.98505,-1.78895 -0.351,-1.0643 -0.351,-2.423 0,-1.23414 0.32835,-2.2758 0.32835,-1.05299 0.95109,-1.81159 0.63405,-0.75861 1.55117,-1.17754 0.92844,-0.43025 2.12862,-0.43025 1.13224,0 1.98142,0.38496 0.84918,0.37364 1.50588,1.05299 z"/><path id="path968" d="m 186.11371,157.73384 c 0.13295,0.13798 0.17707,0.28526 0.17707,0.52648 v 10.34967 h -1.99275 v -11.07334 h 1.30222 c 0.23018,0 0.38052,0.0592 0.51346,0.19719 z" style="font-style:normal;font-variant:normal;font-weight:400;font-stretch:normal;font-family:Carlito;-inkscape-font-specification:Carlito;fill:#333;stroke-width:.44148159"/></g></g></svg>